<svg xmlns="http://www.w3.org/2000/svg" xmlns:oryx="http://oryx-editor.org" id="_A17C3A9C-9F43-4B72-9DC8-A790A9C5CEB1" width="908" height="235" xmlns:xlink="http://www.w3.org/1999/xlink" xmlns:svg="http://www.w3.org/2000/svg"><defs><marker id="_F1AEBC2C-8653-498A-B5E3-04701210806Cstart" refX="1" refY="5" markerUnits="userSpaceOnUse" markerWidth="17" markerHeight="11" orient="auto" fill="#000000" stroke="#000000"> 	  		<path id="_F1AEBC2C-8653-498A-B5E3-04701210806Cconditional" d="M 0 5 L 8 0 L 16 5 L 8 10 L 0 5" fill="white" stroke="#000000" stroke-width="1" display="none"/> 			<path id="_F1AEBC2C-8653-498A-B5E3-04701210806Cdefault" d="M 5 0 L 11 10" fill="white" stroke="#000000" stroke-width="1" display="none"/> 	  	</marker><marker id="_F1AEBC2C-8653-498A-B5E3-04701210806Cend" refX="15" refY="6" markerUnits="userSpaceOnUse" markerWidth="15" markerHeight="12" orient="auto" fill="#000000" stroke="#000000"> 	  		<path id="_F1AEBC2C-8653-498A-B5E3-04701210806Cframe2" d="M 0 1 L 15 6 L 0 11z" fill="#000000" stroke="#000000" stroke-linejoin="round" stroke-width="2"/> 	  	</marker><marker id="_E351D6B2-D348-4B26-9E14-AC601AFF55DEstart" refX="1" refY="5" markerUnits="userSpaceOnUse" markerWidth="17" markerHeight="11" orient="auto" fill="#000000" stroke="#000000"> 	  		<path id="_E351D6B2-D348-4B26-9E14-AC601AFF55DEconditional" d="M 0 5 L 8 0 L 16 5 L 8 10 L 0 5" fill="white" stroke="#000000" stroke-width="1" display="none"/> 			<path id="_E351D6B2-D348-4B26-9E14-AC601AFF55DEdefault" d="M 5 0 L 11 10" fill="white" stroke="#000000" stroke-width="1" display="none"/> 	  	</marker><marker id="_E351D6B2-D348-4B26-9E14-AC601AFF55DEend" refX="15" refY="6" markerUnits="userSpaceOnUse" markerWidth="15" markerHeight="12" orient="auto" fill="#000000" stroke="#000000"> 	  		<path id="_E351D6B2-D348-4B26-9E14-AC601AFF55DEframe2" d="M 0 1 L 15 6 L 0 11z" fill="#000000" stroke="#000000" stroke-linejoin="round" stroke-width="2"/> 	  	</marker><marker id="_BF2B7A22-4F8E-4EA2-8A02-D23EFD717D61start" refX="1" refY="5" markerUnits="userSpaceOnUse" markerWidth="17" markerHeight="11" orient="auto" fill="#000000" stroke="#000000"> 	  		<path id="_BF2B7A22-4F8E-4EA2-8A02-D23EFD717D61conditional" d="M 0 5 L 8 0 L 16 5 L 8 10 L 0 5" fill="white" stroke="#000000" stroke-width="1" display="none"/> 			<path id="_BF2B7A22-4F8E-4EA2-8A02-D23EFD717D61default" d="M 5 0 L 11 10" fill="white" stroke="#000000" stroke-width="1" display="none"/> 	  	</marker><marker id="_BF2B7A22-4F8E-4EA2-8A02-D23EFD717D61end" refX="15" refY="6" markerUnits="userSpaceOnUse" markerWidth="15" markerHeight="12" orient="auto" fill="#000000" stroke="#000000"> 	  		<path id="_BF2B7A22-4F8E-4EA2-8A02-D23EFD717D61frame2" d="M 0 1 L 15 6 L 0 11z" fill="#000000" stroke="#000000" stroke-linejoin="round" stroke-width="2"/> 	  	</marker><marker id="_CC3803F4-065A-46FD-BF77-5A95D243D432start" refX="1" refY="5" markerUnits="userSpaceOnUse" markerWidth="17" markerHeight="11" orient="auto" fill="#000000" stroke="#000000"> 	  		<path id="_CC3803F4-065A-46FD-BF77-5A95D243D432conditional" d="M 0 5 L 8 0 L 16 5 L 8 10 L 0 5" fill="white" stroke="#000000" stroke-width="1" display="none"/> 			<path id="_CC3803F4-065A-46FD-BF77-5A95D243D432default" d="M 5 0 L 11 10" fill="white" stroke="#000000" stroke-width="1" display="none"/> 	  	</marker><marker id="_CC3803F4-065A-46FD-BF77-5A95D243D432end" refX="15" refY="6" markerUnits="userSpaceOnUse" markerWidth="15" markerHeight="12" orient="auto" fill="#000000" stroke="#000000"> 	  		<path id="_CC3803F4-065A-46FD-BF77-5A95D243D432frame2" d="M 0 1 L 15 6 L 0 11z" fill="#000000" stroke="#000000" stroke-linejoin="round" stroke-width="2"/> 	  	</marker></defs><g stroke="none" font-family="Verdana, sans-serif" font-size-adjust="none" font-style="normal" font-variant="normal" font-weight="normal" line-heigth="normal" font-size="12"><g class="stencils" transform="translate(15, 16)"><g class="me"/><g class="children"><g id="_B79D8D70-402B-4B1E-AD8C-8A3999B2126E" bpmn2nodeid="_7E8E56A9-4B8F-4C76-9CE9-71C2F7991608"><g class="stencils" transform="translate(135, 135)"><g class="me"><g pointer-events="fill" id="_B79D8D70-402B-4B1E-AD8C-8A3999B2126E">        <defs id="_B79D8D70-402B-4B1E-AD8C-8A3999B2126E__B79D8D70-402B-4B1E-AD8C-8A3999B2126E_5"> 		<radialGradient id="_B79D8D70-402B-4B1E-AD8C-8A3999B2126Ebackground" cx="10%" cy="10%" r="100%" fx="10%" fy="10%"> 			<stop offset="0%" stop-color="#ffffff" stop-opacity="1" id="_B79D8D70-402B-4B1E-AD8C-8A3999B2126E__B79D8D70-402B-4B1E-AD8C-8A3999B2126E_6"/> 			<stop id="_B79D8D70-402B-4B1E-AD8C-8A3999B2126Efill_el" offset="100%" stop-color="#9acd32" stop-opacity="1"/> 		</radialGradient> 	</defs> 	     <circle id="_B79D8D70-402B-4B1E-AD8C-8A3999B2126Ebg_frame" cx="15" cy="15" r="15" stroke="#000000" fill="url(#_B79D8D70-402B-4B1E-AD8C-8A3999B2126Ebackground) white" stroke-width="1" style="stroke-dasharray: 5.5, 3"/>      <circle id="_B79D8D70-402B-4B1E-AD8C-8A3999B2126Eframe" cx="15" cy="15" r="15" stroke="#000000" fill="none" stroke-width="1" display="inherit"/>  	<text font-size="11" id="_B79D8D70-402B-4B1E-AD8C-8A3999B2126Etext_name" x="15" y="32" oryx:align="top center" stroke="black" stroke-width="0pt" letter-spacing="-0.01px" fill="#000000" text-anchor="middle" transform="rotate(0 15 32)" visibility="inherit" oryx:fontSize="11"/>   </g></g><g class="children" style="overflow:hidden"/><g class="edge"/></g><g class="controls"><g class="dockers"/><g class="magnets" transform="translate(135, 135)"><g pointer-events="all" display="none" transform="translate(7, 7)"><circle cx="8" cy="8" r="4" stroke="none" fill="red" fill-opacity="0.3"/></g></g></g></g><g id="_0E3E7416-7C72-4D8E-830F-A259A3ABED46" bpmn2nodeid="_DAA819F0-1219-45B3-A2C4-F6EB3BCDD497"><g class="stencils" transform="translate(435, 110)"><g class="me"><g pointer-events="fill" oryx:minimumSize="50 40" id="_0E3E7416-7C72-4D8E-830F-A259A3ABED46">   	<defs id="_0E3E7416-7C72-4D8E-830F-A259A3ABED46__0E3E7416-7C72-4D8E-830F-A259A3ABED46_17"> 		<radialGradient id="_0E3E7416-7C72-4D8E-830F-A259A3ABED46background" cx="10%" cy="10%" r="100%" fx="10%" fy="10%"> 			<stop offset="0%" stop-color="#ffffff" stop-opacity="1" id="_0E3E7416-7C72-4D8E-830F-A259A3ABED46__0E3E7416-7C72-4D8E-830F-A259A3ABED46_18"/> 			<stop id="_0E3E7416-7C72-4D8E-830F-A259A3ABED46fill_el" offset="100%" stop-color="#fafad2" stop-opacity="1"/> 		</radialGradient> 		<radialGradient id="_0E3E7416-7C72-4D8E-830F-A259A3ABED46borderbackground" cx="10%" cy="10%" r="100%" fx="10%" fy="10%"> 			<stop offset="0%" stop-color="#ffffff" stop-opacity="1" id="_0E3E7416-7C72-4D8E-830F-A259A3ABED46__0E3E7416-7C72-4D8E-830F-A259A3ABED46_19"/> 			<stop id="_0E3E7416-7C72-4D8E-830F-A259A3ABED46fill_border" offset="100%" stop-color="#000000" stop-opacity="1" stroke="#000000"/> 		</radialGradient> 	</defs> 	 	<rect id="_0E3E7416-7C72-4D8E-830F-A259A3ABED46text_frame" oryx:anchors="bottom top right left" x="1" y="1" width="94" height="79" rx="10" ry="10" stroke="none" stroke-width="0" fill="none"/> 	<rect id="_0E3E7416-7C72-4D8E-830F-A259A3ABED46bg_frame" oryx:resize="vertical horizontal" x="0" y="0" width="100" height="80" rx="10" ry="10" stroke="#000000" stroke-width="1" fill="url(#_0E3E7416-7C72-4D8E-830F-A259A3ABED46background) #ffffcc"/> 		<text font-size="12" id="_0E3E7416-7C72-4D8E-830F-A259A3ABED46text_name" x="50" y="40" oryx:align="middle center" oryx:fittoelem="text_frame" stroke="black" text-anchor="middle" stroke-width="0pt" letter-spacing="-0.01px" fill="#000000" transform="rotate(0 50 40)" visibility="inherit" oryx:fontSize="12"><tspan x="50" y="40" dy="5" id="ext-gen601">get user Details</tspan></text>     <g id="_0E3E7416-7C72-4D8E-830F-A259A3ABED46manualTask" transform="scale(0.7,0.7) translate(8,8)" display="none">     	<path oryx:anchors="top left" id="_0E3E7416-7C72-4D8E-830F-A259A3ABED46frame" style="opacity:1;fill:none;fill-opacity:1;stroke-width:1" d="M0.5,3.751l4.083-3.25c0,0,11.166,0.083,12.083,0.083s-2.417,2.917-1.5,2.917     s11.667,0,12.584,0c1.166,1.708-0.168,3.167-0.834,3.667s0.875,1.917-1,4.417c-0.75,0.25,0.75,1.875-1.333,3.333     c-1.167,0.583,0.583,1.542-1.25,2.833c-1.167,0-20.833,0.083-20.833,0.083l-2-1.333V3.751z" stroke="#000000"/> 		<path id="_0E3E7416-7C72-4D8E-830F-A259A3ABED46frame2" oryx:anchors="top left" style="opacity:1;fill:none;stroke-width:2" d="M 13.5 7 L 27 7" stroke="#000000"/> 		<path id="_0E3E7416-7C72-4D8E-830F-A259A3ABED46frame3" oryx:anchors="top left" style="opacity:1;fill:none;stroke-width:2" d="M 13.5 11 L 26 11" stroke="#000000"/> 		<path id="_0E3E7416-7C72-4D8E-830F-A259A3ABED46frame4" oryx:anchors="top left" style="opacity:1;fill:none;stroke-width:1.5" d="M 14 14.5 L 25 14.5" stroke="#000000"/> 		<path id="_0E3E7416-7C72-4D8E-830F-A259A3ABED46frame5" oryx:anchors="top left" style="opacity:1;fill:none;stroke-width:1.5" d="M 8.2 3.1 L 15 3.1" stroke="#000000"/> 	</g> 	 	<g id="_0E3E7416-7C72-4D8E-830F-A259A3ABED46businessRuleTask" transform="scale(0.7,0.7) translate(8,8)" display="none"> 		<rect id="_0E3E7416-7C72-4D8E-830F-A259A3ABED46frame6" oryx:anchors="top left" x="0" y="0" width="22" height="4" style="opacity:1;fill:#B3B1B3;fill-opacity:1;" stroke="#000000"/> 		<rect id="_0E3E7416-7C72-4D8E-830F-A259A3ABED46frame7" oryx:anchors="top left" x="0" y="4" style="opacity:1;fill:none;" width="22" height="12" stroke="#000000"/> 		<path id="_0E3E7416-7C72-4D8E-830F-A259A3ABED46frame8" oryx:anchors="top left" style="opacity:1;fill:none;" d="M 0 10 L 22 10" stroke="#000000"/> 		<path id="_0E3E7416-7C72-4D8E-830F-A259A3ABED46frame9" oryx:anchors="top left" style="opacity:1; fill:none;" d="M 7 4 L 7 16" stroke="#000000"/> 	</g> 	 	<g id="_0E3E7416-7C72-4D8E-830F-A259A3ABED46scriptTask" transform="scale(0.7,0.7) translate(8,8)" display="none"> 		<path oryx:anchors="top left" id="_0E3E7416-7C72-4D8E-830F-A259A3ABED46frame10" style="opacity:1;fill:none;" stroke="#000000" d="M6.402,0.5h14.5c0,0-5.833,2.833-5.833,5.583s4.417,6,4.417,9.167    s-4.167,5.083-4.167,5.083H0.235c0,0,5-2.667,5-5s-4.583-6.75-4.583-9.25S6.402,0.5,6.402,0.5z"/> 		<path oryx:anchors="top left" id="_0E3E7416-7C72-4D8E-830F-A259A3ABED46frame11" style="opacity:1;fill:none;stroke-width:1.5" d="M 3.5 4.5 L 13.5 4.5" stroke="#000000"/> 		<path oryx:anchors="top left" id="_0E3E7416-7C72-4D8E-830F-A259A3ABED46frame12" style="opacity:1;fill:none;stroke-width:1.5" d="M 3.8 8.5 L 13.8 8.5" stroke="#000000"/> 		<path oryx:anchors="top left" id="_0E3E7416-7C72-4D8E-830F-A259A3ABED46frame13" style="opacity:1;fill:none;stroke-width:1.5" d="M 6.3 12.5 L 16.3 12.5" stroke="#000000"/> 		<path oryx:anchors="top left" id="_0E3E7416-7C72-4D8E-830F-A259A3ABED46frame14" style="opacity:1;fill:none;stroke-width:1.5" d="M 6.5 16.5 L 16.5 16.5" stroke="#000000"/> 	</g> 	 	<g id="_0E3E7416-7C72-4D8E-830F-A259A3ABED46userTask" transform="scale(0.7,0.7) translate(8,8)" display="inherit"> 		<path id="_0E3E7416-7C72-4D8E-830F-A259A3ABED46frame15" oryx:anchors="top left" style="opacity:1;fill:#F4F6F7" stroke="#000000" d="M0.585,24.167h24.083v-7.833c0,0-2.333-3.917-7.083-5.167h-9.25    c-4.417,1.333-7.833,5.75-7.833,5.75L0.585,24.167z"/> 		<path id="_0E3E7416-7C72-4D8E-830F-A259A3ABED46frame16" oryx:anchors="top left" style="opacity:1;fill:none" d="M 6 20 L 6 24" stroke="#000000"/> 		<path id="_0E3E7416-7C72-4D8E-830F-A259A3ABED46frame17" oryx:anchors="top left" style="opacity:1;fill:none" d="M 20 20 L 20 24" stroke="#000000"/> 		<circle id="_0E3E7416-7C72-4D8E-830F-A259A3ABED46frame18" oryx:anchors="top left" fill="black" cx="13.002" cy="5.916" r="5.417" stroke="#000000"/> 		<path id="_0E3E7416-7C72-4D8E-830F-A259A3ABED46frame19" oryx:anchors="top left" style="opacity:1;fill:#F0EFF0;" stroke="#000000" d="M8.043,7.083c0,0,2.814-2.426,5.376-1.807s4.624-0.693,4.624-0.693    c0.25,1.688,0.042,3.75-1.458,5.584c0,0,1.083,0.75,1.083,1.5s0.125,1.875-1,3s-5.5,1.25-6.75,0S8.668,12.834,8.668,12    s0.583-1.25,1.25-1.917C8.835,9.5,7.419,7.708,8.043,7.083z"/> 	</g> 	 	<g id="_0E3E7416-7C72-4D8E-830F-A259A3ABED46serviceTask" transform="scale(0.7,0.7) translate(8,8)" display="none"> 		<polygon oryx:anchors="top left" id="_0E3E7416-7C72-4D8E-830F-A259A3ABED46frame20" style="opacity:1;fill:#ffffff" stroke="#000000" points="15.392,5.064 17.954,2.502 20.347,4.895 17.786,7.455     18.729,9.732 22.353,9.732 22.353,13.115 18.731,13.115 17.788,15.392 20.351,17.955 17.958,20.347 15.397,17.786 13.12,18.729     13.12,22.353 9.737,22.353 9.737,18.731 7.46,17.788 4.897,20.35 2.506,17.958 5.066,15.397 4.124,13.12 0.5,13.12 0.5,9.737     4.121,9.737 5.065,7.461 2.503,4.898 4.895,2.506 7.455,5.066 9.732,4.125 9.732,0.5 13.116,0.5 13.116,4.121 "/> 		<circle oryx:anchors="top left" id="_0E3E7416-7C72-4D8E-830F-A259A3ABED46frame21" style="opacity:1;fill:none" stroke="#000000" cx="11.427" cy="11.426" r="3.714"/> 		<polygon oryx:anchors="top left" id="_0E3E7416-7C72-4D8E-830F-A259A3ABED46frame22" style="opacity:1;fill:#ffffff" stroke="#000000" points="21.392,11.064 23.954,8.502 26.347,10.895 23.786,13.455     24.729,15.732 28.353,15.732 28.353,19.115 24.731,19.115 23.788,21.392 26.351,23.955 23.958,26.347 21.397,23.786 19.12,24.729     19.12,28.353 15.737,28.353 15.737,24.731 13.46,23.788 10.897,26.35 8.506,23.958 11.066,21.397 10.124,19.12 6.5,19.12     6.5,15.737 10.121,15.737 11.065,13.461 8.503,10.898 10.895,8.506 13.455,11.066 15.732,10.125 15.732,6.5 19.116,6.5     19.116,10.121 "/> 		<circle oryx:anchors="top left" id="_0E3E7416-7C72-4D8E-830F-A259A3ABED46frame23" style="opacity:1;fill:none;" stroke="#000000" cx="17.427" cy="17.426" r="3.714"/> 	</g> 	 	<g id="_0E3E7416-7C72-4D8E-830F-A259A3ABED46sendTask" display="none"> 		<path id="_0E3E7416-7C72-4D8E-830F-A259A3ABED46stframe24" oryx:anchors="left top" stroke="#FFFFFF" fill="black" stroke-width="1" d="M8,11 L8,21 L24,21 L24,11 L16,17z"/> 		<path id="_0E3E7416-7C72-4D8E-830F-A259A3ABED46stframe25" oryx:anchors="left top" stroke="#FFFFFF" fill="black" stroke-width="1" d="M7,10 L16,17 L25 10z"/> 	</g> 	 	<g id="_0E3E7416-7C72-4D8E-830F-A259A3ABED46receiveTask" display="none"> 		<path id="_0E3E7416-7C72-4D8E-830F-A259A3ABED46frame26" oryx:anchors="left top" stroke="#000000" fill="none" stroke-width="1" d="M8,11 L8,21 L24,21 L24,11z M8,11 L16,17 L24,11"/> 	</g> 	 	<g id="_0E3E7416-7C72-4D8E-830F-A259A3ABED46none" display="inherit"/>  	<g id="_0E3E7416-7C72-4D8E-830F-A259A3ABED46sequential" display="none">         <path oryx:anchors="bottom" fill="none" stroke="#000000" stroke-width="2" d="M46,76h10M46,72h10 M46,68h10" id="_0E3E7416-7C72-4D8E-830F-A259A3ABED46__0E3E7416-7C72-4D8E-830F-A259A3ABED46_20"/>     </g>   </g></g><g class="children" style="overflow:hidden"/><g class="edge"/></g><g class="controls"><g class="dockers"/><g class="magnets" transform="translate(435, 110)"><g pointer-events="all" display="none" transform="translate(-7, 12)"><circle cx="8" cy="8" r="4" stroke="none" fill="red" fill-opacity="0.3"/></g><g pointer-events="all" display="none" transform="translate(-7, 32)"><circle cx="8" cy="8" r="4" stroke="none" fill="red" fill-opacity="0.3"/></g><g pointer-events="all" display="none" transform="translate(-7, 52)"><circle cx="8" cy="8" r="4" stroke="none" fill="red" fill-opacity="0.3"/></g><g pointer-events="all" display="none" transform="translate(17, 71)"><circle cx="8" cy="8" r="4" stroke="none" fill="red" fill-opacity="0.3"/></g><g pointer-events="all" display="none" transform="translate(42, 71)"><circle cx="8" cy="8" r="4" stroke="none" fill="red" fill-opacity="0.3"/></g><g pointer-events="all" display="none" transform="translate(67, 71)"><circle cx="8" cy="8" r="4" stroke="none" fill="red" fill-opacity="0.3"/></g><g pointer-events="all" display="none" transform="translate(91, 12)"><circle cx="8" cy="8" r="4" stroke="none" fill="red" fill-opacity="0.3"/></g><g pointer-events="all" display="none" transform="translate(91, 32)"><circle cx="8" cy="8" r="4" stroke="none" fill="red" fill-opacity="0.3"/></g><g pointer-events="all" display="none" transform="translate(91, 52)"><circle cx="8" cy="8" r="4" stroke="none" fill="red" fill-opacity="0.3"/></g><g pointer-events="all" display="none" transform="translate(17, -7)"><circle cx="8" cy="8" r="4" stroke="none" fill="red" fill-opacity="0.3"/></g><g pointer-events="all" display="none" transform="translate(42, -7)"><circle cx="8" cy="8" r="4" stroke="none" fill="red" fill-opacity="0.3"/></g><g pointer-events="all" display="none" transform="translate(67, -7)"><circle cx="8" cy="8" r="4" stroke="none" fill="red" fill-opacity="0.3"/></g><g pointer-events="all" display="none" transform="translate(42, 32)"><circle cx="8" cy="8" r="4" stroke="none" fill="red" fill-opacity="0.3"/></g></g></g></g><g id="_9C332B41-2C0B-4350-8B7B-2680D5DBEF66" bpmn2nodeid="_0ABD6133-F96A-4BD3-AFB1-DA04DF6A2356"><g class="stencils" transform="translate(840, 131)"><g class="me"><g pointer-events="fill" id="_9C332B41-2C0B-4350-8B7B-2680D5DBEF66">      <defs id="_9C332B41-2C0B-4350-8B7B-2680D5DBEF66__9C332B41-2C0B-4350-8B7B-2680D5DBEF66_5"> 		<radialGradient id="_9C332B41-2C0B-4350-8B7B-2680D5DBEF66background" cx="10%" cy="10%" r="100%" fx="10%" fy="10%"> 			<stop offset="0%" stop-color="#ffffff" stop-opacity="1" id="_9C332B41-2C0B-4350-8B7B-2680D5DBEF66__9C332B41-2C0B-4350-8B7B-2680D5DBEF66_6"/> 			<stop id="_9C332B41-2C0B-4350-8B7B-2680D5DBEF66fill_el" offset="100%" stop-color="#ff6347" stop-opacity="1"/> 		</radialGradient> 	</defs> 	     <circle id="_9C332B41-2C0B-4350-8B7B-2680D5DBEF66bg_frame" cx="14" cy="14" r="14" stroke="#000000" fill="url(#_9C332B41-2C0B-4350-8B7B-2680D5DBEF66background) white" stroke-width="3"/> 	<text font-size="11" id="_9C332B41-2C0B-4350-8B7B-2680D5DBEF66text_name" x="14" y="30" oryx:align="top center" stroke="black" stroke-width="0pt" letter-spacing="-0.01px" fill="#000000" text-anchor="middle" transform="rotate(0 14 30)" visibility="inherit" oryx:fontSize="11"/>   </g></g><g class="children" style="overflow:hidden"/><g class="edge"/></g><g class="controls"><g class="dockers"/><g class="magnets" transform="translate(840, 131)"><g pointer-events="all" display="none" transform="translate(6, 6)"><circle cx="8" cy="8" r="4" stroke="none" fill="red" fill-opacity="0.3"/></g></g></g></g><g id="_51324661-A890-42B6-A15D-F6B6316484DA" bpmn2nodeid="_16D05052-AD03-486F-9985-2C663EE70ACA"><g class="stencils" transform="translate(645, 110)"><g class="me"><g pointer-events="fill" oryx:minimumSize="50 40" id="_51324661-A890-42B6-A15D-F6B6316484DA">   	<defs id="_51324661-A890-42B6-A15D-F6B6316484DA__51324661-A890-42B6-A15D-F6B6316484DA_17"> 		<radialGradient id="_51324661-A890-42B6-A15D-F6B6316484DAbackground" cx="10%" cy="10%" r="100%" fx="10%" fy="10%"> 			<stop offset="0%" stop-color="#ffffff" stop-opacity="1" id="_51324661-A890-42B6-A15D-F6B6316484DA__51324661-A890-42B6-A15D-F6B6316484DA_18"/> 			<stop id="_51324661-A890-42B6-A15D-F6B6316484DAfill_el" offset="100%" stop-color="#fafad2" stop-opacity="1"/> 		</radialGradient> 		<radialGradient id="_51324661-A890-42B6-A15D-F6B6316484DAborderbackground" cx="10%" cy="10%" r="100%" fx="10%" fy="10%"> 			<stop offset="0%" stop-color="#ffffff" stop-opacity="1" id="_51324661-A890-42B6-A15D-F6B6316484DA__51324661-A890-42B6-A15D-F6B6316484DA_19"/> 			<stop id="_51324661-A890-42B6-A15D-F6B6316484DAfill_border" offset="100%" stop-color="#000000" stop-opacity="1" stroke="#000000"/> 		</radialGradient> 	</defs> 	 	<rect id="_51324661-A890-42B6-A15D-F6B6316484DAtext_frame" oryx:anchors="bottom top right left" x="1" y="1" width="94" height="79" rx="10" ry="10" stroke="none" stroke-width="0" fill="none"/> 	<rect id="_51324661-A890-42B6-A15D-F6B6316484DAbg_frame" oryx:resize="vertical horizontal" x="0" y="0" width="100" height="80" rx="10" ry="10" stroke="#000000" stroke-width="1" fill="url(#_51324661-A890-42B6-A15D-F6B6316484DAbackground) #ffffcc"/> 		<text font-size="12" id="_51324661-A890-42B6-A15D-F6B6316484DAtext_name" x="50" y="40" oryx:align="middle center" oryx:fittoelem="text_frame" stroke="black" text-anchor="middle" stroke-width="0pt" letter-spacing="-0.01px" fill="#000000" transform="rotate(0 50 40)" visibility="inherit" oryx:fontSize="12"/>     <g id="_51324661-A890-42B6-A15D-F6B6316484DAmanualTask" transform="scale(0.7,0.7) translate(8,8)" display="none">     	<path oryx:anchors="top left" id="_51324661-A890-42B6-A15D-F6B6316484DAframe" style="opacity:1;fill:none;fill-opacity:1;stroke-width:1" d="M0.5,3.751l4.083-3.25c0,0,11.166,0.083,12.083,0.083s-2.417,2.917-1.5,2.917     s11.667,0,12.584,0c1.166,1.708-0.168,3.167-0.834,3.667s0.875,1.917-1,4.417c-0.75,0.25,0.75,1.875-1.333,3.333     c-1.167,0.583,0.583,1.542-1.25,2.833c-1.167,0-20.833,0.083-20.833,0.083l-2-1.333V3.751z" stroke="#000000"/> 		<path id="_51324661-A890-42B6-A15D-F6B6316484DAframe2" oryx:anchors="top left" style="opacity:1;fill:none;stroke-width:2" d="M 13.5 7 L 27 7" stroke="#000000"/> 		<path id="_51324661-A890-42B6-A15D-F6B6316484DAframe3" oryx:anchors="top left" style="opacity:1;fill:none;stroke-width:2" d="M 13.5 11 L 26 11" stroke="#000000"/> 		<path id="_51324661-A890-42B6-A15D-F6B6316484DAframe4" oryx:anchors="top left" style="opacity:1;fill:none;stroke-width:1.5" d="M 14 14.5 L 25 14.5" stroke="#000000"/> 		<path id="_51324661-A890-42B6-A15D-F6B6316484DAframe5" oryx:anchors="top left" style="opacity:1;fill:none;stroke-width:1.5" d="M 8.2 3.1 L 15 3.1" stroke="#000000"/> 	</g> 	 	<g id="_51324661-A890-42B6-A15D-F6B6316484DAbusinessRuleTask" transform="scale(0.7,0.7) translate(8,8)" display="none"> 		<rect id="_51324661-A890-42B6-A15D-F6B6316484DAframe6" oryx:anchors="top left" x="0" y="0" width="22" height="4" style="opacity:1;fill:#B3B1B3;fill-opacity:1;" stroke="#000000"/> 		<rect id="_51324661-A890-42B6-A15D-F6B6316484DAframe7" oryx:anchors="top left" x="0" y="4" style="opacity:1;fill:none;" width="22" height="12" stroke="#000000"/> 		<path id="_51324661-A890-42B6-A15D-F6B6316484DAframe8" oryx:anchors="top left" style="opacity:1;fill:none;" d="M 0 10 L 22 10" stroke="#000000"/> 		<path id="_51324661-A890-42B6-A15D-F6B6316484DAframe9" oryx:anchors="top left" style="opacity:1; fill:none;" d="M 7 4 L 7 16" stroke="#000000"/> 	</g> 	 	<g id="_51324661-A890-42B6-A15D-F6B6316484DAscriptTask" transform="scale(0.7,0.7) translate(8,8)" display="inherit"> 		<path oryx:anchors="top left" id="_51324661-A890-42B6-A15D-F6B6316484DAframe10" style="opacity:1;fill:none;" stroke="#000000" d="M6.402,0.5h14.5c0,0-5.833,2.833-5.833,5.583s4.417,6,4.417,9.167    s-4.167,5.083-4.167,5.083H0.235c0,0,5-2.667,5-5s-4.583-6.75-4.583-9.25S6.402,0.5,6.402,0.5z"/> 		<path oryx:anchors="top left" id="_51324661-A890-42B6-A15D-F6B6316484DAframe11" style="opacity:1;fill:none;stroke-width:1.5" d="M 3.5 4.5 L 13.5 4.5" stroke="#000000"/> 		<path oryx:anchors="top left" id="_51324661-A890-42B6-A15D-F6B6316484DAframe12" style="opacity:1;fill:none;stroke-width:1.5" d="M 3.8 8.5 L 13.8 8.5" stroke="#000000"/> 		<path oryx:anchors="top left" id="_51324661-A890-42B6-A15D-F6B6316484DAframe13" style="opacity:1;fill:none;stroke-width:1.5" d="M 6.3 12.5 L 16.3 12.5" stroke="#000000"/> 		<path oryx:anchors="top left" id="_51324661-A890-42B6-A15D-F6B6316484DAframe14" style="opacity:1;fill:none;stroke-width:1.5" d="M 6.5 16.5 L 16.5 16.5" stroke="#000000"/> 	</g> 	 	<g id="_51324661-A890-42B6-A15D-F6B6316484DAuserTask" transform="scale(0.7,0.7) translate(8,8)" display="none"> 		<path id="_51324661-A890-42B6-A15D-F6B6316484DAframe15" oryx:anchors="top left" style="opacity:1;fill:#F4F6F7" stroke="#000000" d="M0.585,24.167h24.083v-7.833c0,0-2.333-3.917-7.083-5.167h-9.25    c-4.417,1.333-7.833,5.75-7.833,5.75L0.585,24.167z"/> 		<path id="_51324661-A890-42B6-A15D-F6B6316484DAframe16" oryx:anchors="top left" style="opacity:1;fill:none" d="M 6 20 L 6 24" stroke="#000000"/> 		<path id="_51324661-A890-42B6-A15D-F6B6316484DAframe17" oryx:anchors="top left" style="opacity:1;fill:none" d="M 20 20 L 20 24" stroke="#000000"/> 		<circle id="_51324661-A890-42B6-A15D-F6B6316484DAframe18" oryx:anchors="top left" fill="black" cx="13.002" cy="5.916" r="5.417" stroke="#000000"/> 		<path id="_51324661-A890-42B6-A15D-F6B6316484DAframe19" oryx:anchors="top left" style="opacity:1;fill:#F0EFF0;" stroke="#000000" d="M8.043,7.083c0,0,2.814-2.426,5.376-1.807s4.624-0.693,4.624-0.693    c0.25,1.688,0.042,3.75-1.458,5.584c0,0,1.083,0.75,1.083,1.5s0.125,1.875-1,3s-5.5,1.25-6.75,0S8.668,12.834,8.668,12    s0.583-1.25,1.25-1.917C8.835,9.5,7.419,7.708,8.043,7.083z"/> 	</g> 	 	<g id="_51324661-A890-42B6-A15D-F6B6316484DAserviceTask" transform="scale(0.7,0.7) translate(8,8)" display="none"> 		<polygon oryx:anchors="top left" id="_51324661-A890-42B6-A15D-F6B6316484DAframe20" style="opacity:1;fill:#ffffff" stroke="#000000" points="15.392,5.064 17.954,2.502 20.347,4.895 17.786,7.455     18.729,9.732 22.353,9.732 22.353,13.115 18.731,13.115 17.788,15.392 20.351,17.955 17.958,20.347 15.397,17.786 13.12,18.729     13.12,22.353 9.737,22.353 9.737,18.731 7.46,17.788 4.897,20.35 2.506,17.958 5.066,15.397 4.124,13.12 0.5,13.12 0.5,9.737     4.121,9.737 5.065,7.461 2.503,4.898 4.895,2.506 7.455,5.066 9.732,4.125 9.732,0.5 13.116,0.5 13.116,4.121 "/> 		<circle oryx:anchors="top left" id="_51324661-A890-42B6-A15D-F6B6316484DAframe21" style="opacity:1;fill:none" stroke="#000000" cx="11.427" cy="11.426" r="3.714"/> 		<polygon oryx:anchors="top left" id="_51324661-A890-42B6-A15D-F6B6316484DAframe22" style="opacity:1;fill:#ffffff" stroke="#000000" points="21.392,11.064 23.954,8.502 26.347,10.895 23.786,13.455     24.729,15.732 28.353,15.732 28.353,19.115 24.731,19.115 23.788,21.392 26.351,23.955 23.958,26.347 21.397,23.786 19.12,24.729     19.12,28.353 15.737,28.353 15.737,24.731 13.46,23.788 10.897,26.35 8.506,23.958 11.066,21.397 10.124,19.12 6.5,19.12     6.5,15.737 10.121,15.737 11.065,13.461 8.503,10.898 10.895,8.506 13.455,11.066 15.732,10.125 15.732,6.5 19.116,6.5     19.116,10.121 "/> 		<circle oryx:anchors="top left" id="_51324661-A890-42B6-A15D-F6B6316484DAframe23" style="opacity:1;fill:none;" stroke="#000000" cx="17.427" cy="17.426" r="3.714"/> 	</g> 	 	<g id="_51324661-A890-42B6-A15D-F6B6316484DAsendTask" display="none"> 		<path id="_51324661-A890-42B6-A15D-F6B6316484DAstframe24" oryx:anchors="left top" stroke="#FFFFFF" fill="black" stroke-width="1" d="M8,11 L8,21 L24,21 L24,11 L16,17z"/> 		<path id="_51324661-A890-42B6-A15D-F6B6316484DAstframe25" oryx:anchors="left top" stroke="#FFFFFF" fill="black" stroke-width="1" d="M7,10 L16,17 L25 10z"/> 	</g> 	 	<g id="_51324661-A890-42B6-A15D-F6B6316484DAreceiveTask" display="none"> 		<path id="_51324661-A890-42B6-A15D-F6B6316484DAframe26" oryx:anchors="left top" stroke="#000000" fill="none" stroke-width="1" d="M8,11 L8,21 L24,21 L24,11z M8,11 L16,17 L24,11"/> 	</g> 	 	<g id="_51324661-A890-42B6-A15D-F6B6316484DAnone" display="inherit"/>  	<g id="_51324661-A890-42B6-A15D-F6B6316484DAsequential" display="none">         <path oryx:anchors="bottom" fill="none" stroke="#000000" stroke-width="2" d="M46,76h10M46,72h10 M46,68h10" id="_51324661-A890-42B6-A15D-F6B6316484DA__51324661-A890-42B6-A15D-F6B6316484DA_20"/>     </g>   </g></g><g class="children" style="overflow:hidden"/><g class="edge"/></g><g class="controls"><g class="dockers"/><g class="magnets" transform="translate(645, 110)"><g pointer-events="all" display="none" transform="translate(-7, 12)"><circle cx="8" cy="8" r="4" stroke="none" fill="red" fill-opacity="0.3"/></g><g pointer-events="all" display="none" transform="translate(-7, 32)"><circle cx="8" cy="8" r="4" stroke="none" fill="red" fill-opacity="0.3"/></g><g pointer-events="all" display="none" transform="translate(-7, 52)"><circle cx="8" cy="8" r="4" stroke="none" fill="red" fill-opacity="0.3"/></g><g pointer-events="all" display="none" transform="translate(17, 71)"><circle cx="8" cy="8" r="4" stroke="none" fill="red" fill-opacity="0.3"/></g><g pointer-events="all" display="none" transform="translate(42, 71)"><circle cx="8" cy="8" r="4" stroke="none" fill="red" fill-opacity="0.3"/></g><g pointer-events="all" display="none" transform="translate(67, 71)"><circle cx="8" cy="8" r="4" stroke="none" fill="red" fill-opacity="0.3"/></g><g pointer-events="all" display="none" transform="translate(91, 12)"><circle cx="8" cy="8" r="4" stroke="none" fill="red" fill-opacity="0.3"/></g><g pointer-events="all" display="none" transform="translate(91, 32)"><circle cx="8" cy="8" r="4" stroke="none" fill="red" fill-opacity="0.3"/></g><g pointer-events="all" display="none" transform="translate(91, 52)"><circle cx="8" cy="8" r="4" stroke="none" fill="red" fill-opacity="0.3"/></g><g pointer-events="all" display="none" transform="translate(17, -7)"><circle cx="8" cy="8" r="4" stroke="none" fill="red" fill-opacity="0.3"/></g><g pointer-events="all" display="none" transform="translate(42, -7)"><circle cx="8" cy="8" r="4" stroke="none" fill="red" fill-opacity="0.3"/></g><g pointer-events="all" display="none" transform="translate(67, -7)"><circle cx="8" cy="8" r="4" stroke="none" fill="red" fill-opacity="0.3"/></g><g pointer-events="all" display="none" transform="translate(42, 32)"><circle cx="8" cy="8" r="4" stroke="none" fill="red" fill-opacity="0.3"/></g></g></g></g><g id="_BB896E4C-E221-4EAD-BB41-C4A8DC862AD3" bpmn2nodeid="_D0D958E2-DB9E-4DDF-BAF8-BD2065E84CBB"><g class="stencils" transform="translate(240, 110)"><g class="me"><g pointer-events="fill" oryx:minimumSize="50 40" id="_BB896E4C-E221-4EAD-BB41-C4A8DC862AD3">   	<defs id="_BB896E4C-E221-4EAD-BB41-C4A8DC862AD3__BB896E4C-E221-4EAD-BB41-C4A8DC862AD3_17"> 		<radialGradient id="_BB896E4C-E221-4EAD-BB41-C4A8DC862AD3background" cx="10%" cy="10%" r="100%" fx="10%" fy="10%"> 			<stop offset="0%" stop-color="#ffffff" stop-opacity="1" id="_BB896E4C-E221-4EAD-BB41-C4A8DC862AD3__BB896E4C-E221-4EAD-BB41-C4A8DC862AD3_18"/> 			<stop id="_BB896E4C-E221-4EAD-BB41-C4A8DC862AD3fill_el" offset="100%" stop-color="#fafad2" stop-opacity="1"/> 		</radialGradient> 		<radialGradient id="_BB896E4C-E221-4EAD-BB41-C4A8DC862AD3borderbackground" cx="10%" cy="10%" r="100%" fx="10%" fy="10%"> 			<stop offset="0%" stop-color="#ffffff" stop-opacity="1" id="_BB896E4C-E221-4EAD-BB41-C4A8DC862AD3__BB896E4C-E221-4EAD-BB41-C4A8DC862AD3_19"/> 			<stop id="_BB896E4C-E221-4EAD-BB41-C4A8DC862AD3fill_border" offset="100%" stop-color="#000000" stop-opacity="1" stroke="#000000"/> 		</radialGradient> 	</defs> 	 	<rect id="_BB896E4C-E221-4EAD-BB41-C4A8DC862AD3text_frame" oryx:anchors="bottom top right left" x="1" y="1" width="94" height="79" rx="10" ry="10" stroke="none" stroke-width="0" fill="none"/> 	<rect id="_BB896E4C-E221-4EAD-BB41-C4A8DC862AD3bg_frame" oryx:resize="vertical horizontal" x="0" y="0" width="100" height="80" rx="10" ry="10" stroke="#000000" stroke-width="1" fill="url(#_BB896E4C-E221-4EAD-BB41-C4A8DC862AD3background) #ffffcc"/> 		<text font-size="12" id="_BB896E4C-E221-4EAD-BB41-C4A8DC862AD3text_name" x="50" y="40" oryx:align="middle center" oryx:fittoelem="text_frame" stroke="black" text-anchor="middle" stroke-width="0pt" letter-spacing="-0.01px" fill="#000000" transform="rotate(0 50 40)" visibility="inherit" oryx:fontSize="12"/>     <g id="_BB896E4C-E221-4EAD-BB41-C4A8DC862AD3manualTask" transform="scale(0.7,0.7) translate(8,8)" display="none">     	<path oryx:anchors="top left" id="_BB896E4C-E221-4EAD-BB41-C4A8DC862AD3frame" style="opacity:1;fill:none;fill-opacity:1;stroke-width:1" d="M0.5,3.751l4.083-3.25c0,0,11.166,0.083,12.083,0.083s-2.417,2.917-1.5,2.917     s11.667,0,12.584,0c1.166,1.708-0.168,3.167-0.834,3.667s0.875,1.917-1,4.417c-0.75,0.25,0.75,1.875-1.333,3.333     c-1.167,0.583,0.583,1.542-1.25,2.833c-1.167,0-20.833,0.083-20.833,0.083l-2-1.333V3.751z" stroke="#000000"/> 		<path id="_BB896E4C-E221-4EAD-BB41-C4A8DC862AD3frame2" oryx:anchors="top left" style="opacity:1;fill:none;stroke-width:2" d="M 13.5 7 L 27 7" stroke="#000000"/> 		<path id="_BB896E4C-E221-4EAD-BB41-C4A8DC862AD3frame3" oryx:anchors="top left" style="opacity:1;fill:none;stroke-width:2" d="M 13.5 11 L 26 11" stroke="#000000"/> 		<path id="_BB896E4C-E221-4EAD-BB41-C4A8DC862AD3frame4" oryx:anchors="top left" style="opacity:1;fill:none;stroke-width:1.5" d="M 14 14.5 L 25 14.5" stroke="#000000"/> 		<path id="_BB896E4C-E221-4EAD-BB41-C4A8DC862AD3frame5" oryx:anchors="top left" style="opacity:1;fill:none;stroke-width:1.5" d="M 8.2 3.1 L 15 3.1" stroke="#000000"/> 	</g> 	 	<g id="_BB896E4C-E221-4EAD-BB41-C4A8DC862AD3businessRuleTask" transform="scale(0.7,0.7) translate(8,8)" display="none"> 		<rect id="_BB896E4C-E221-4EAD-BB41-C4A8DC862AD3frame6" oryx:anchors="top left" x="0" y="0" width="22" height="4" style="opacity:1;fill:#B3B1B3;fill-opacity:1;" stroke="#000000"/> 		<rect id="_BB896E4C-E221-4EAD-BB41-C4A8DC862AD3frame7" oryx:anchors="top left" x="0" y="4" style="opacity:1;fill:none;" width="22" height="12" stroke="#000000"/> 		<path id="_BB896E4C-E221-4EAD-BB41-C4A8DC862AD3frame8" oryx:anchors="top left" style="opacity:1;fill:none;" d="M 0 10 L 22 10" stroke="#000000"/> 		<path id="_BB896E4C-E221-4EAD-BB41-C4A8DC862AD3frame9" oryx:anchors="top left" style="opacity:1; fill:none;" d="M 7 4 L 7 16" stroke="#000000"/> 	</g> 	 	<g id="_BB896E4C-E221-4EAD-BB41-C4A8DC862AD3scriptTask" transform="scale(0.7,0.7) translate(8,8)" display="inherit"> 		<path oryx:anchors="top left" id="_BB896E4C-E221-4EAD-BB41-C4A8DC862AD3frame10" style="opacity:1;fill:none;" stroke="#000000" d="M6.402,0.5h14.5c0,0-5.833,2.833-5.833,5.583s4.417,6,4.417,9.167    s-4.167,5.083-4.167,5.083H0.235c0,0,5-2.667,5-5s-4.583-6.75-4.583-9.25S6.402,0.5,6.402,0.5z"/> 		<path oryx:anchors="top left" id="_BB896E4C-E221-4EAD-BB41-C4A8DC862AD3frame11" style="opacity:1;fill:none;stroke-width:1.5" d="M 3.5 4.5 L 13.5 4.5" stroke="#000000"/> 		<path oryx:anchors="top left" id="_BB896E4C-E221-4EAD-BB41-C4A8DC862AD3frame12" style="opacity:1;fill:none;stroke-width:1.5" d="M 3.8 8.5 L 13.8 8.5" stroke="#000000"/> 		<path oryx:anchors="top left" id="_BB896E4C-E221-4EAD-BB41-C4A8DC862AD3frame13" style="opacity:1;fill:none;stroke-width:1.5" d="M 6.3 12.5 L 16.3 12.5" stroke="#000000"/> 		<path oryx:anchors="top left" id="_BB896E4C-E221-4EAD-BB41-C4A8DC862AD3frame14" style="opacity:1;fill:none;stroke-width:1.5" d="M 6.5 16.5 L 16.5 16.5" stroke="#000000"/> 	</g> 	 	<g id="_BB896E4C-E221-4EAD-BB41-C4A8DC862AD3userTask" transform="scale(0.7,0.7) translate(8,8)" display="none"> 		<path id="_BB896E4C-E221-4EAD-BB41-C4A8DC862AD3frame15" oryx:anchors="top left" style="opacity:1;fill:#F4F6F7" stroke="#000000" d="M0.585,24.167h24.083v-7.833c0,0-2.333-3.917-7.083-5.167h-9.25    c-4.417,1.333-7.833,5.75-7.833,5.75L0.585,24.167z"/> 		<path id="_BB896E4C-E221-4EAD-BB41-C4A8DC862AD3frame16" oryx:anchors="top left" style="opacity:1;fill:none" d="M 6 20 L 6 24" stroke="#000000"/> 		<path id="_BB896E4C-E221-4EAD-BB41-C4A8DC862AD3frame17" oryx:anchors="top left" style="opacity:1;fill:none" d="M 20 20 L 20 24" stroke="#000000"/> 		<circle id="_BB896E4C-E221-4EAD-BB41-C4A8DC862AD3frame18" oryx:anchors="top left" fill="black" cx="13.002" cy="5.916" r="5.417" stroke="#000000"/> 		<path id="_BB896E4C-E221-4EAD-BB41-C4A8DC862AD3frame19" oryx:anchors="top left" style="opacity:1;fill:#F0EFF0;" stroke="#000000" d="M8.043,7.083c0,0,2.814-2.426,5.376-1.807s4.624-0.693,4.624-0.693    c0.25,1.688,0.042,3.75-1.458,5.584c0,0,1.083,0.75,1.083,1.5s0.125,1.875-1,3s-5.5,1.25-6.75,0S8.668,12.834,8.668,12    s0.583-1.25,1.25-1.917C8.835,9.5,7.419,7.708,8.043,7.083z"/> 	</g> 	 	<g id="_BB896E4C-E221-4EAD-BB41-C4A8DC862AD3serviceTask" transform="scale(0.7,0.7) translate(8,8)" display="none"> 		<polygon oryx:anchors="top left" id="_BB896E4C-E221-4EAD-BB41-C4A8DC862AD3frame20" style="opacity:1;fill:#ffffff" stroke="#000000" points="15.392,5.064 17.954,2.502 20.347,4.895 17.786,7.455     18.729,9.732 22.353,9.732 22.353,13.115 18.731,13.115 17.788,15.392 20.351,17.955 17.958,20.347 15.397,17.786 13.12,18.729     13.12,22.353 9.737,22.353 9.737,18.731 7.46,17.788 4.897,20.35 2.506,17.958 5.066,15.397 4.124,13.12 0.5,13.12 0.5,9.737     4.121,9.737 5.065,7.461 2.503,4.898 4.895,2.506 7.455,5.066 9.732,4.125 9.732,0.5 13.116,0.5 13.116,4.121 "/> 		<circle oryx:anchors="top left" id="_BB896E4C-E221-4EAD-BB41-C4A8DC862AD3frame21" style="opacity:1;fill:none" stroke="#000000" cx="11.427" cy="11.426" r="3.714"/> 		<polygon oryx:anchors="top left" id="_BB896E4C-E221-4EAD-BB41-C4A8DC862AD3frame22" style="opacity:1;fill:#ffffff" stroke="#000000" points="21.392,11.064 23.954,8.502 26.347,10.895 23.786,13.455     24.729,15.732 28.353,15.732 28.353,19.115 24.731,19.115 23.788,21.392 26.351,23.955 23.958,26.347 21.397,23.786 19.12,24.729     19.12,28.353 15.737,28.353 15.737,24.731 13.46,23.788 10.897,26.35 8.506,23.958 11.066,21.397 10.124,19.12 6.5,19.12     6.5,15.737 10.121,15.737 11.065,13.461 8.503,10.898 10.895,8.506 13.455,11.066 15.732,10.125 15.732,6.5 19.116,6.5     19.116,10.121 "/> 		<circle oryx:anchors="top left" id="_BB896E4C-E221-4EAD-BB41-C4A8DC862AD3frame23" style="opacity:1;fill:none;" stroke="#000000" cx="17.427" cy="17.426" r="3.714"/> 	</g> 	 	<g id="_BB896E4C-E221-4EAD-BB41-C4A8DC862AD3sendTask" display="none"> 		<path id="_BB896E4C-E221-4EAD-BB41-C4A8DC862AD3stframe24" oryx:anchors="left top" stroke="#FFFFFF" fill="black" stroke-width="1" d="M8,11 L8,21 L24,21 L24,11 L16,17z"/> 		<path id="_BB896E4C-E221-4EAD-BB41-C4A8DC862AD3stframe25" oryx:anchors="left top" stroke="#FFFFFF" fill="black" stroke-width="1" d="M7,10 L16,17 L25 10z"/> 	</g> 	 	<g id="_BB896E4C-E221-4EAD-BB41-C4A8DC862AD3receiveTask" display="none"> 		<path id="_BB896E4C-E221-4EAD-BB41-C4A8DC862AD3frame26" oryx:anchors="left top" stroke="#000000" fill="none" stroke-width="1" d="M8,11 L8,21 L24,21 L24,11z M8,11 L16,17 L24,11"/> 	</g> 	 	<g id="_BB896E4C-E221-4EAD-BB41-C4A8DC862AD3none" display="inherit"/>  	<g id="_BB896E4C-E221-4EAD-BB41-C4A8DC862AD3sequential" display="none">         <path oryx:anchors="bottom" fill="none" stroke="#000000" stroke-width="2" d="M46,76h10M46,72h10 M46,68h10" id="_BB896E4C-E221-4EAD-BB41-C4A8DC862AD3__BB896E4C-E221-4EAD-BB41-C4A8DC862AD3_20"/>     </g>   </g></g><g class="children" style="overflow:hidden"/><g class="edge"/></g><g class="controls"><g class="dockers"/><g class="magnets" transform="translate(240, 110)"><g pointer-events="all" display="none" transform="translate(-7, 12)"><circle cx="8" cy="8" r="4" stroke="none" fill="red" fill-opacity="0.3"/></g><g pointer-events="all" display="none" transform="translate(-7, 32)"><circle cx="8" cy="8" r="4" stroke="none" fill="red" fill-opacity="0.3"/></g><g pointer-events="all" display="none" transform="translate(-7, 52)"><circle cx="8" cy="8" r="4" stroke="none" fill="red" fill-opacity="0.3"/></g><g pointer-events="all" display="none" transform="translate(17, 71)"><circle cx="8" cy="8" r="4" stroke="none" fill="red" fill-opacity="0.3"/></g><g pointer-events="all" display="none" transform="translate(42, 71)"><circle cx="8" cy="8" r="4" stroke="none" fill="red" fill-opacity="0.3"/></g><g pointer-events="all" display="none" transform="translate(67, 71)"><circle cx="8" cy="8" r="4" stroke="none" fill="red" fill-opacity="0.3"/></g><g pointer-events="all" display="none" transform="translate(91, 12)"><circle cx="8" cy="8" r="4" stroke="none" fill="red" fill-opacity="0.3"/></g><g pointer-events="all" display="none" transform="translate(91, 32)"><circle cx="8" cy="8" r="4" stroke="none" fill="red" fill-opacity="0.3"/></g><g pointer-events="all" display="none" transform="translate(91, 52)"><circle cx="8" cy="8" r="4" stroke="none" fill="red" fill-opacity="0.3"/></g><g pointer-events="all" display="none" transform="translate(17, -7)"><circle cx="8" cy="8" r="4" stroke="none" fill="red" fill-opacity="0.3"/></g><g pointer-events="all" display="none" transform="translate(42, -7)"><circle cx="8" cy="8" r="4" stroke="none" fill="red" fill-opacity="0.3"/></g><g pointer-events="all" display="none" transform="translate(67, -7)"><circle cx="8" cy="8" r="4" stroke="none" fill="red" fill-opacity="0.3"/></g><g pointer-events="all" display="none" transform="translate(42, 32)"><circle cx="8" cy="8" r="4" stroke="none" fill="red" fill-opacity="0.3"/></g></g></g></g></g><g class="edge"><g id="_F1AEBC2C-8653-498A-B5E3-04701210806C" bpmn2nodeid="_544D7C46-9AA5-4710-B0A2-3473B88E3E41"><g class="stencils"><g class="me"><g pointer-events="painted" bpmn2nodeid="_3526FD42-623D-4866-B9AE-F1373D6B3C12"><path id="_F1AEBC2C-8653-498A-B5E3-04701210806C_1" d="M745.6870059239415 148.40606899610248L839.3364315760585 145.46111850389752 " stroke="#000000" fill="none" stroke-width="2" stroke-linecap="round" stroke-linejoin="round" marker-start="url(#_F1AEBC2C-8653-498A-B5E3-04701210806Cstart)" marker-end="url(#_F1AEBC2C-8653-498A-B5E3-04701210806Cend)"/></g><text id="_F1AEBC2C-8653-498A-B5E3-04701210806Ctext_name" font-size="12" x="759.6870059239415" y="134.40606899610248" oryx:edgePosition="startTop" stroke-width="0pt" letter-spacing="-0.01px" fill="#000000" text-anchor="start" transform="rotate(358.19883948427764 745.6870059239415 148.40606899610248)" visibility="inherit" oryx:fontSize="12"/></g><g class="children" style="overflow:hidden"/><g class="edge"/></g><g class="controls"><g class="dockers"/><g class="magnets"/></g></g><g id="_E351D6B2-D348-4B26-9E14-AC601AFF55DE" bpmn2nodeid="_92B96D6D-4A53-425A-9A57-DD29D878BDEE"><g class="stencils"><g class="me"><g pointer-events="painted" bpmn2nodeid="_E67413F5-A652-4D75-9C1C-FEFBBEFA9EB4"><path id="_E351D6B2-D348-4B26-9E14-AC601AFF55DE_1" d="M535.21875 150L644.78125 150 " stroke="#000000" fill="none" stroke-width="2" stroke-linecap="round" stroke-linejoin="round" marker-start="url(#_E351D6B2-D348-4B26-9E14-AC601AFF55DEstart)" marker-end="url(#_E351D6B2-D348-4B26-9E14-AC601AFF55DEend)"/></g><text id="_E351D6B2-D348-4B26-9E14-AC601AFF55DEtext_name" font-size="12" x="549.21875" y="136" oryx:edgePosition="startTop" stroke-width="0pt" letter-spacing="-0.01px" fill="#000000" text-anchor="start" transform="rotate(360 535.21875 150)" visibility="inherit" oryx:fontSize="12"/></g><g class="children" style="overflow:hidden"/><g class="edge"/></g><g class="controls"><g class="dockers"/><g class="magnets"/></g></g><g id="_BF2B7A22-4F8E-4EA2-8A02-D23EFD717D61" bpmn2nodeid="_B15770C4-9CC4-491D-A428-68F83AB8DAC5"><g class="stencils"><g class="me"><g pointer-events="painted" bpmn2nodeid="_B55EF1C9-987C-48B9-895E-C55FA478D1CC"><path id="_BF2B7A22-4F8E-4EA2-8A02-D23EFD717D61_1" d="M165.21875 150L239.78125 150 " stroke="#000000" fill="none" stroke-width="2" stroke-linecap="round" stroke-linejoin="round" marker-start="url(#_BF2B7A22-4F8E-4EA2-8A02-D23EFD717D61start)" marker-end="url(#_BF2B7A22-4F8E-4EA2-8A02-D23EFD717D61end)"/></g><text id="_BF2B7A22-4F8E-4EA2-8A02-D23EFD717D61text_name" font-size="12" x="179.21875" y="136" oryx:edgePosition="startTop" stroke-width="0pt" letter-spacing="-0.01px" fill="#000000" text-anchor="start" transform="rotate(360 165.21875 150)" visibility="inherit" oryx:fontSize="12"/></g><g class="children" style="overflow:hidden"/><g class="edge"/></g><g class="controls"><g class="dockers"/><g class="magnets"/></g></g><g id="_CC3803F4-065A-46FD-BF77-5A95D243D432" bpmn2nodeid="_BE3EE55E-335C-4527-8580-43026B9ED083"><g class="stencils"><g class="me"><g pointer-events="painted" bpmn2nodeid="_19A15666-FABD-49BA-99DB-33AC55F2E8EC"><path id="_CC3803F4-065A-46FD-BF77-5A95D243D432_1" d="M340.51171875 150L434.48828125 150 " stroke="#000000" fill="none" stroke-width="2" stroke-linecap="round" stroke-linejoin="round" marker-start="url(#_CC3803F4-065A-46FD-BF77-5A95D243D432start)" marker-end="url(#_CC3803F4-065A-46FD-BF77-5A95D243D432end)"/></g><text id="_CC3803F4-065A-46FD-BF77-5A95D243D432text_name" font-size="12" x="354.51171875" y="136" oryx:edgePosition="startTop" stroke-width="0pt" letter-spacing="-0.01px" fill="#000000" text-anchor="start" transform="rotate(360 340.51171875 150)" visibility="inherit" oryx:fontSize="12"/></g><g class="children" style="overflow:hidden"/><g class="edge"/></g><g class="controls"><g class="dockers"/><g class="magnets"/></g></g></g><text id="_F6D16470-9CA9-4936-A731-119C1D45F0F8" style="stroke-width:1;fill:rgb(177,194,214);font-family:arial;font-weight:bold" font-size="12" onclick="ORYX.Plugins.CanvasTitle.openTextualAnalysis()" onmouseover="ORYX.Plugins.CanvasTitle.addToolTip('_F6D16470-9CA9-4936-A731-119C1D45F0F8')" transform="translate(10, 20)">customerInfo v.1.0 (serviceUseCase.customerInfo)</text></g></g></svg>